<svg xmlns="http://www.w3.org/2000/svg" width="30.552" height="30.552" viewBox="0 0 30.552 30.552"><g transform="translate(-2 -2)"><circle cx="7.87" cy="7.87" r="7.87" transform="translate(8.884 8.943)" fill="#f5f5f5"/><path d="M22.055,14.055H20.528a1.528,1.528,0,1,1,0-3.055h1.528a1.528,1.528,0,0,1,0,3.055Z" transform="translate(8.97 4.749)" fill="#f5f5f5"/><path d="M5.055,14.055H3.528a1.528,1.528,0,1,1,0-3.055H5.055a1.528,1.528,0,1,1,0,3.055Z" transform="translate(0 4.749)" fill="#f5f5f5"/><path d="M18.162,8.8a1.521,1.521,0,0,1-1.008-2.6l1.085-1.085a1.528,1.528,0,1,1,2.154,2.154L19.307,8.353A1.528,1.528,0,0,1,18.162,8.8Z" transform="translate(7.761 1.361)" fill="#f5f5f5"/><path d="M6.168,20.732a1.52,1.52,0,0,1-1.085-2.6l1.085-1.008a1.528,1.528,0,0,1,2.154,2.154L7.237,20.365A1.528,1.528,0,0,1,6.168,20.732Z" transform="translate(1.393 7.787)" fill="#f5f5f5"/><path d="M12.528,6.583A1.528,1.528,0,0,1,11,5.055V3.528a1.528,1.528,0,1,1,3.055,0V5.055A1.528,1.528,0,0,1,12.528,6.583Z" transform="translate(4.749)" fill="#f5f5f5"/><path d="M12.528,23.583A1.528,1.528,0,0,1,11,22.055V20.528a1.528,1.528,0,1,1,3.055,0v1.528A1.528,1.528,0,0,1,12.528,23.583Z" transform="translate(4.749 8.97)" fill="#f5f5f5"/><path d="M7.211,8.738A1.528,1.528,0,0,1,6.141,8.3L5.057,7.211A1.528,1.528,0,0,1,7.211,5.057L8.3,6.141a1.52,1.52,0,0,1-1.085,2.6Z" transform="translate(1.419 1.419)" fill="#f5f5f5"/><path d="M19.144,20.672a1.528,1.528,0,0,1-1.069-.443l-1.008-1.085a1.528,1.528,0,0,1,2.078-2.078l1.085,1.085a1.448,1.448,0,0,1-1.085,2.521Z" transform="translate(7.848 7.848)" fill="#f5f5f5"/></g></svg>